<svg width="75" height="75" viewBox="0 0 75 75" fill="none" xmlns="http://www.w3.org/2000/svg">
<path d="M53.9062 72.6562H21.0938C10.7812 72.6562 2.34375 64.2188 2.34375 53.9062V21.0938C2.34375 10.7812 10.7812 2.34375 21.0938 2.34375H53.9062C64.2188 2.34375 72.6562 10.7812 72.6562 21.0938V53.9062C72.6562 64.2188 64.2188 72.6562 53.9062 72.6562Z" stroke="white" stroke-width="2" stroke-miterlimit="10" stroke-linecap="round" stroke-linejoin="round"/>
<path d="M46.4062 37.5L55.0781 26.4844C58.125 22.2656 55.0781 16.4062 49.6875 16.4062C47.5781 16.4062 45.7031 17.3438 44.2969 18.9844L32.8125 35.1562V23.4375C32.8125 19.6875 29.5312 16.4062 25.5469 16.4062C21.7969 16.4062 18.75 19.4531 18.75 22.9688V52.0313C18.75 55.7813 21.7969 58.5938 25.5469 58.5938C29.2969 58.5938 32.8125 55.3125 32.8125 51.5625V42.1875L44.2969 56.0156C45.4687 57.6562 47.5781 58.5938 49.6875 58.5938C55.0781 58.5938 58.3594 52.7344 55.0781 48.5156L46.4062 37.5Z" stroke="white" stroke-width="2" stroke-miterlimit="10" stroke-linecap="round" stroke-linejoin="round"/>
</svg>
