<svg width="75" height="75" viewBox="0 0 75 75" fill="none" xmlns="http://www.w3.org/2000/svg">
<path d="M53.9062 72.6562H21.0938C10.7812 72.6562 2.34375 64.2188 2.34375 53.9062V21.0938C2.34375 10.7812 10.7812 2.34375 21.0938 2.34375H53.9062C64.2188 2.34375 72.6562 10.7812 72.6562 21.0938V53.9062C72.6562 64.2188 64.2188 72.6562 53.9062 72.6562Z" stroke="white" stroke-width="2" stroke-miterlimit="10" stroke-linecap="round" stroke-linejoin="round"/>
<path d="M25.7812 30.4688H16.4062V58.5938H25.7812V30.4688Z" stroke="white" stroke-width="2" stroke-miterlimit="10" stroke-linecap="round" stroke-linejoin="round"/>
<path d="M48.0469 30.4688C45.9375 30.4688 43.8281 31.1719 42.1875 32.3438V30.4688H32.8125V58.5938H37.5H42.1875V43.3594C42.1875 41.4844 43.8281 39.8438 45.7031 39.8438C47.5781 39.8438 49.2188 41.4844 49.2188 43.3594V58.5938H58.5938V41.0156C58.5938 35.1562 53.9062 30.4688 48.0469 30.4688Z" stroke="white" stroke-width="2" stroke-miterlimit="10" stroke-linecap="round" stroke-linejoin="round"/>
<path d="M21.0938 23.4375C23.6826 23.4375 25.7812 21.3388 25.7812 18.75C25.7812 16.1612 23.6826 14.0625 21.0938 14.0625C18.5049 14.0625 16.4062 16.1612 16.4062 18.75C16.4062 21.3388 18.5049 23.4375 21.0938 23.4375Z" stroke="white" stroke-width="2" stroke-miterlimit="10" stroke-linecap="round" stroke-linejoin="round"/>
</svg>
