<svg width="75" height="75" viewBox="0 0 75 75" fill="none" xmlns="http://www.w3.org/2000/svg">
<path d="M53.9062 72.6562H21.0938C10.7812 72.6562 2.34375 64.2188 2.34375 53.9062V21.0938C2.34375 10.7812 10.7812 2.34375 21.0938 2.34375H53.9062C64.2188 2.34375 72.6562 10.7812 72.6562 21.0938V53.9062C72.6562 64.2188 64.2188 72.6562 53.9062 72.6562Z" stroke="#FFFDFD" stroke-width="2" stroke-miterlimit="10" stroke-linecap="round" stroke-linejoin="round"/>
<path d="M60.9375 37.5H49.2188V30.9375C49.2188 29.2969 50.3906 28.125 52.0313 28.125H58.5938V16.4062H49.2188C42.6563 16.4062 37.5 21.5625 37.5 28.125V37.5H28.125V49.2188H37.5V72.6562H49.2188V49.2188H56.25L60.9375 37.5Z" stroke="#FFFDFD" stroke-width="2" stroke-miterlimit="10" stroke-linecap="round" stroke-linejoin="round"/>
</svg>
