<svg width="346" height="66" viewBox="0 0 346 66" fill="none" xmlns="http://www.w3.org/2000/svg">
<path fill-rule="evenodd" clip-rule="evenodd" d="M346 0H196V66H346V0ZM216.641 38.0781C216.422 40.0156 216.312 41.5469 216.312 42.6719C216.312 43.5781 216.422 44.5781 216.641 45.6719C216.891 46.7344 217.266 47.7344 217.766 48.6719C218.297 49.6094 218.969 50.4062 219.781 51.0625C220.594 51.6875 221.562 52 222.688 52C223.312 52.3125 224.125 52.3281 225.125 52.0469C226.156 51.7969 227.266 51.3281 228.453 50.6406C229.641 49.9531 230.844 49.1094 232.062 48.1094C233.312 47.0781 234.453 45.9844 235.484 44.8281C236.547 43.6406 237.453 42.4375 238.203 41.2188C238.984 39.9688 239.484 38.7812 239.703 37.6562C239.703 37.125 239.516 36.8125 239.141 36.7188C238.766 36.625 238.375 36.5781 237.969 36.5781C237.906 36.5781 237.75 36.5938 237.5 36.625C237.25 36.625 237.094 36.6406 237.031 36.6719C236.656 37.7969 236.031 39.0625 235.156 40.4688C234.312 41.8438 233.312 43.1406 232.156 44.3594C231.031 45.5781 229.781 46.5938 228.406 47.4062C227.062 48.2188 225.688 48.625 224.281 48.625C223.094 48.625 222.172 48.4219 221.516 48.0156C220.859 47.5781 220.359 47 220.016 46.2812C219.703 45.5625 219.5 44.75 219.406 43.8438C219.344 42.9062 219.312 41.9375 219.312 40.9375C219.312 40.1875 219.406 39.0312 219.594 37.4688C219.781 35.9062 220.062 34.1719 220.438 32.2656C220.812 30.3281 221.281 28.3438 221.844 26.3125C222.406 24.2812 223.062 22.4375 223.812 20.7812C224.562 19.125 225.406 17.7656 226.344 16.7031C227.281 15.6094 228.312 15.0625 229.438 15.0625C229.906 15.1875 230.266 15.5 230.516 16C230.766 16.5 231.016 16.9844 231.266 17.4531C231.547 17.8906 231.906 18.2188 232.344 18.4375C232.781 18.6562 233.422 18.5625 234.266 18.1562C234.266 17.375 234.172 16.6406 233.984 15.9531C233.797 15.2656 233.5 14.6562 233.094 14.125C232.688 13.5938 232.172 13.1719 231.547 12.8594C230.953 12.5469 230.234 12.3906 229.391 12.3906C227.891 12.3906 226.516 12.9844 225.266 14.1719C224.047 15.3594 222.953 16.8906 221.984 18.7656C221.016 20.6094 220.172 22.6875 219.453 25C218.734 27.2812 218.141 29.5469 217.672 31.7969C217.234 34.0469 216.891 36.1406 216.641 38.0781ZM242.609 22.9844C242.359 23.0469 242.141 23.125 241.953 23.2188L242.562 50.9688C242.562 51.4688 242.703 51.8281 242.984 52.0469C243.266 52.2969 243.562 52.4219 243.875 52.4219C244.219 52.4219 244.531 52.2969 244.812 52.0469C245.094 51.7969 245.219 51.4375 245.188 50.9688C245.125 48.9688 245.062 46.7969 245 44.4531C244.938 42.1094 244.859 39.7344 244.766 37.3281C244.703 34.8906 244.641 32.5 244.578 30.1562C244.547 27.7812 244.531 25.5781 244.531 23.5469C244.406 23.2969 244.234 23.125 244.016 23.0312C243.797 22.9375 243.562 22.8906 243.312 22.8906C243.094 22.8906 242.859 22.9219 242.609 22.9844ZM241.812 12.8594C241.531 12.9844 241.391 13.25 241.391 13.6562C241.391 14.2812 241.5 14.7656 241.719 15.1094C241.969 15.4531 242.25 15.6719 242.562 15.7656C242.906 15.8594 243.234 15.8281 243.547 15.6719C243.859 15.5156 244.109 15.25 244.297 14.875C244.297 14.2812 244.203 13.7656 244.016 13.3281C243.859 12.8594 243.438 12.625 242.75 12.625C242.406 12.625 242.094 12.7031 241.812 12.8594ZM250.016 50.3125C250.828 51.1562 251.859 51.6562 253.109 51.8125C254.359 51.8438 255.594 51.5469 256.812 50.9219C258.062 50.2656 259.172 49.3594 260.141 48.2031C261.141 47.0469 261.969 45.6719 262.625 44.0781C263.281 42.4844 263.688 40.7656 263.844 38.9219C263.969 37.2969 263.984 35.6094 263.891 33.8594C263.797 32.0781 263.531 30.4375 263.094 28.9375C262.656 27.4375 262.031 26.1719 261.219 25.1406C260.438 24.1094 259.406 23.5 258.125 23.3125C256.906 23.125 255.656 23.4375 254.375 24.25C253.125 25.0312 251.969 26.1562 250.906 27.625C249.875 29.0625 249 30.7656 248.281 32.7344C247.594 34.7031 247.203 36.7656 247.109 38.9219C247.047 40.3281 247.078 41.7656 247.203 43.2344C247.359 44.6719 247.672 46 248.141 47.2188C248.609 48.4375 249.234 49.4688 250.016 50.3125ZM254.75 26.9688C255.656 26.1875 256.625 25.8594 257.656 25.9844C258.406 26.2344 259.062 26.8125 259.625 27.7188C260.219 28.5938 260.688 29.6406 261.031 30.8594C261.406 32.0781 261.641 33.4062 261.734 34.8438C261.859 36.25 261.812 37.625 261.594 38.9688C261.406 40.25 261.016 41.5 260.422 42.7188C259.859 43.9375 259.203 45.0312 258.453 46C257.703 46.9375 256.891 47.6875 256.016 48.25C255.172 48.8125 254.359 49.0781 253.578 49.0469C252.609 49.0469 251.828 48.75 251.234 48.1562C250.672 47.5312 250.25 46.7344 249.969 45.7656C249.719 44.7969 249.578 43.7188 249.547 42.5312C249.516 41.3438 249.562 40.1875 249.688 39.0625C249.844 37.5 250.156 35.9219 250.625 34.3281C251.094 32.7031 251.672 31.2656 252.359 30.0156C253.078 28.7344 253.875 27.7188 254.75 26.9688ZM265.859 40.1406C265.922 43.1406 266 46.7969 266.094 51.1094C266.219 51.4531 266.438 51.7188 266.75 51.9062C267.094 52.0625 267.422 52.125 267.734 52.0938C268.078 52.0938 268.375 52.0156 268.625 51.8594C268.906 51.6719 269.062 51.4062 269.094 51.0625C269.125 50.0312 269.109 48.8281 269.047 47.4531C269.016 46.0781 269.016 44.625 269.047 43.0938C269.109 41.5625 269.25 40.0312 269.469 38.5C269.719 36.9375 270.172 35.4531 270.828 34.0469C271.266 33.0781 271.859 32.1562 272.609 31.2812C273.391 30.4062 274.281 29.6562 275.281 29.0312C276.312 28.375 277.438 27.8906 278.656 27.5781C279.906 27.2344 281.234 27.1094 282.641 27.2031C282.922 27.0781 283.141 26.8906 283.297 26.6406C283.484 26.3594 283.562 26.0781 283.531 25.7969C283.531 25.4844 283.422 25.2031 283.203 24.9531C283.016 24.7031 282.719 24.5312 282.312 24.4375C281.094 24.2188 279.766 24.2344 278.328 24.4844C276.922 24.7344 275.562 25.2812 274.25 26.125C272.938 26.9375 271.75 28.0625 270.688 29.5C269.656 30.9375 268.906 32.7344 268.438 34.8906L268.297 24.1094C268.172 23.8281 267.969 23.625 267.688 23.5C267.406 23.375 267.109 23.3438 266.797 23.4062C266.516 23.4375 266.25 23.5469 266 23.7344C265.75 23.9219 265.609 24.1562 265.578 24.4375V24.6719V25.6094C265.609 26.1406 265.625 26.9688 265.625 28.0938C265.656 29.1875 265.688 30.7188 265.719 32.6875C265.75 34.6562 265.797 37.1406 265.859 40.1406ZM285.734 43.9375C285.828 46.5 285.969 49.1562 286.156 51.9062C286.156 51.9375 286.172 51.9688 286.203 52C286.266 52.0625 286.406 52.0938 286.625 52.0938C286.875 52.125 287.219 52.1094 287.656 52.0469C288.125 51.9844 288.766 51.8438 289.578 51.625C292.078 50.375 294.188 49.1562 295.906 47.9688C297.656 46.7812 299.094 45.6406 300.219 44.5469C301.375 43.4219 302.266 42.3594 302.891 41.3594C303.516 40.3594 303.969 39.4062 304.25 38.5C304.562 37.5625 304.75 36.7031 304.812 35.9219C304.875 35.1094 304.922 34.3594 304.953 33.6719C304.953 32.7031 304.875 31.7656 304.719 30.8594C304.562 29.9531 304.281 29.1562 303.875 28.4688C303.5 27.75 302.984 27.1875 302.328 26.7812C301.672 26.3438 300.844 26.125 299.844 26.125C298.969 26.0312 298.094 26.0469 297.219 26.1719C296.375 26.2656 295.5 26.5625 294.594 27.0625C293.688 27.5312 292.719 28.25 291.688 29.2188C290.688 30.1562 289.578 31.4219 288.359 33.0156C288.359 30.4844 288.344 28.2969 288.312 26.4531V21.5312C288.312 20.0938 288.297 18.7812 288.266 17.5938V13.8438C288.266 13.375 288.188 13.0625 288.031 12.9062C287.875 12.7188 287.656 12.6094 287.375 12.5781C287.125 12.5469 286.812 12.5625 286.438 12.625C286.094 12.6562 285.719 12.6719 285.312 12.6719C285.406 17.6406 285.469 21.9688 285.5 25.6562C285.531 29.3438 285.562 32.6719 285.594 35.6406C285.625 38.6094 285.672 41.375 285.734 43.9375ZM289.812 48.2031C289.094 48.5469 288.656 48.7812 288.5 48.9062L288.688 38.5938C289.125 37.5938 289.656 36.5312 290.281 35.4062C290.938 34.25 291.688 33.1875 292.531 32.2188C293.375 31.25 294.312 30.4531 295.344 29.8281C296.406 29.1719 297.578 28.8438 298.859 28.8438C299.484 28.8438 300.016 29.0156 300.453 29.3594C300.922 29.6719 301.297 30.0781 301.578 30.5781C301.891 31.0469 302.109 31.5625 302.234 32.125C302.391 32.6875 302.469 33.2031 302.469 33.6719C302.344 35.3594 301.938 36.8906 301.25 38.2656C300.562 39.6406 299.719 40.875 298.719 41.9688C297.75 43.0312 296.703 43.9688 295.578 44.7812C294.453 45.5938 293.391 46.2812 292.391 46.8438C291.391 47.4062 290.531 47.8594 289.812 48.2031ZM321.734 48.9531C321.859 50.0156 322.141 50.875 322.578 51.5312C322.609 51.7812 322.75 51.9688 323 52.0938C323.281 52.2188 323.578 52.2344 323.891 52.1406C324.203 52.0781 324.484 51.9219 324.734 51.6719C324.984 51.3906 325.109 51 325.109 50.5C325.047 49.0938 324.859 47.7344 324.547 46.4219C324.266 45.1094 323.969 43.6406 323.656 42.0156C323.344 40.3906 323.062 38.5156 322.812 36.3906C322.594 34.2656 322.516 31.6875 322.578 28.6562C322.516 27.7188 322.422 26.9531 322.297 26.3594C322.172 25.7344 321.969 25.25 321.688 24.9062C321.406 24.5625 321.047 24.3438 320.609 24.25C320.203 24.125 319.688 24.0938 319.062 24.1562C317.812 23.75 316.609 23.8594 315.453 24.4844C314.297 25.0781 313.203 26 312.172 27.25C311.172 28.5 310.266 29.9844 309.453 31.7031C308.672 33.3906 308.016 35.125 307.484 36.9062C306.984 38.6875 306.625 40.4219 306.406 42.1094C306.219 43.7656 306.234 45.1875 306.453 46.375C306.484 47.0938 306.672 47.8594 307.016 48.6719C307.359 49.4531 307.828 50.125 308.422 50.6875C309.047 51.2188 309.797 51.5312 310.672 51.625C311.547 51.6875 312.516 51.3438 313.578 50.5938C314.672 49.8125 315.859 48.5312 317.141 46.75C318.453 44.9375 319.844 42.4219 321.312 39.2031C321.5 40.0156 321.578 41 321.547 42.1562V45.625C321.578 46.7812 321.641 47.8906 321.734 48.9531ZM317.422 26.5938C318.297 26.4375 319.109 26.8594 319.859 27.8594L320.094 35.6875C319.75 36.5312 319.297 37.5781 318.734 38.8281C318.203 40.0469 317.594 41.2812 316.906 42.5312C316.219 43.75 315.5 44.8906 314.75 45.9531C314 47.0156 313.266 47.7969 312.547 48.2969C311.828 48.7656 311.156 48.8594 310.531 48.5781C309.906 48.2969 309.375 47.4531 308.938 46.0469C308.781 44.7656 308.828 43.2969 309.078 41.6406C309.359 39.9531 309.781 38.2656 310.344 36.5781C310.906 34.8906 311.578 33.3125 312.359 31.8438C313.141 30.3438 313.953 29.1406 314.797 28.2344C315.672 27.2969 316.547 26.75 317.422 26.5938Z" fill="white"/>
<rect x="2" y="2" width="197" height="62" stroke="white" stroke-width="4"/>
<path d="M40.192 22.304C39.232 21.216 37.952 20.336 36.352 19.664C34.752 18.992 32.928 18.656 30.88 18.656C27.872 18.656 25.68 19.232 24.304 20.384C22.928 21.504 22.24 23.04 22.24 24.992C22.24 26.016 22.416 26.864 22.768 27.536C23.152 28.176 23.728 28.736 24.496 29.216C25.264 29.696 26.24 30.112 27.424 30.464C28.64 30.816 30.064 31.168 31.696 31.52C33.52 31.904 35.152 32.336 36.592 32.816C38.064 33.296 39.312 33.904 40.336 34.64C41.36 35.344 42.144 36.208 42.688 37.232C43.232 38.256 43.504 39.536 43.504 41.072C43.504 42.64 43.2 44 42.592 45.152C41.984 46.304 41.136 47.264 40.048 48.032C38.96 48.8 37.664 49.376 36.16 49.76C34.656 50.112 33.008 50.288 31.216 50.288C25.936 50.288 21.376 48.64 17.536 45.344L19.216 42.608C19.824 43.248 20.544 43.856 21.376 44.432C22.24 45.008 23.184 45.52 24.208 45.968C25.264 46.384 26.384 46.72 27.568 46.976C28.752 47.2 30 47.312 31.312 47.312C34.032 47.312 36.144 46.832 37.648 45.872C39.184 44.88 39.952 43.392 39.952 41.408C39.952 40.352 39.728 39.472 39.28 38.768C38.864 38.032 38.224 37.408 37.36 36.896C36.496 36.352 35.424 35.888 34.144 35.504C32.864 35.12 31.376 34.736 29.68 34.352C27.888 33.936 26.32 33.504 24.976 33.056C23.632 32.608 22.496 32.048 21.568 31.376C20.64 30.704 19.936 29.904 19.456 28.976C19.008 28.016 18.784 26.848 18.784 25.472C18.784 23.904 19.072 22.512 19.648 21.296C20.256 20.048 21.104 19.024 22.192 18.224C23.28 17.392 24.56 16.768 26.032 16.352C27.504 15.904 29.136 15.68 30.928 15.68C33.2 15.68 35.216 16.032 36.976 16.736C38.768 17.408 40.384 18.368 41.824 19.616L40.192 22.304ZM59.4258 15.92H62.2578L76.4178 50H72.8658L68.4498 39.344H53.1378L48.7698 50H45.1698L59.4258 15.92ZM67.6818 36.704L60.8178 19.856L53.8578 36.704H67.6818ZM84.6633 22.16V50H81.3033V15.92H83.8953L106.455 44.288V15.968H109.815V50H106.887L84.6633 22.16ZM118.381 50V15.92H129.949C132.669 15.92 135.037 16.368 137.053 17.264C139.101 18.16 140.797 19.376 142.141 20.912C143.517 22.448 144.541 24.256 145.213 26.336C145.917 28.384 146.269 30.576 146.269 32.912C146.269 35.504 145.885 37.856 145.117 39.968C144.349 42.048 143.245 43.84 141.805 45.344C140.397 46.816 138.685 47.968 136.669 48.8C134.685 49.6 132.445 50 129.949 50H118.381ZM142.909 32.912C142.909 30.864 142.621 28.992 142.045 27.296C141.469 25.568 140.621 24.08 139.501 22.832C138.413 21.584 137.069 20.624 135.469 19.952C133.869 19.248 132.029 18.896 129.949 18.896H121.741V47.024H129.949C132.061 47.024 133.917 46.672 135.517 45.968C137.149 45.232 138.509 44.24 139.597 42.992C140.685 41.712 141.501 40.224 142.045 38.528C142.621 36.8 142.909 34.928 142.909 32.912ZM166.518 47.216C168.662 47.216 170.438 46.816 171.846 46.016C173.286 45.184 174.422 44.112 175.254 42.8C176.118 41.456 176.71 39.936 177.03 38.24C177.382 36.544 177.558 34.832 177.558 33.104V15.92H180.918V33.104C180.918 35.408 180.662 37.6 180.15 39.68C179.638 41.728 178.806 43.536 177.654 45.104C176.534 46.672 175.062 47.92 173.238 48.848C171.414 49.776 169.19 50.24 166.566 50.24C163.878 50.24 161.606 49.76 159.75 48.8C157.926 47.808 156.454 46.512 155.334 44.912C154.214 43.312 153.414 41.488 152.934 39.44C152.454 37.392 152.214 35.28 152.214 33.104V15.92H155.526V33.104C155.526 34.896 155.702 36.64 156.054 38.336C156.406 40.032 156.998 41.536 157.83 42.848C158.694 44.16 159.83 45.216 161.238 46.016C162.646 46.816 164.406 47.216 166.518 47.216Z" fill="white"/>
<path d="M40.192 22.304L39.4422 22.9656L40.3414 23.9848L41.0468 22.823L40.192 22.304ZM24.304 20.384L24.9353 21.1596L24.9459 21.1508L24.304 20.384ZM22.768 27.536L21.8822 28L21.8956 28.0257L21.9105 28.0505L22.768 27.536ZM24.496 29.216L25.026 28.368L24.496 29.216ZM27.424 30.464L27.139 31.4226L27.1459 31.4246L27.424 30.464ZM31.696 31.52L31.4852 32.4975L31.49 32.4985L31.696 31.52ZM36.592 32.816L36.2758 33.7647L36.282 33.7667L36.592 32.816ZM40.336 34.64L39.7524 35.452L39.7609 35.4581L39.7695 35.464L40.336 34.64ZM42.688 37.232L43.5711 36.7628L43.5711 36.7628L42.688 37.232ZM42.592 45.152L43.4764 45.6188L42.592 45.152ZM40.048 48.032L40.6247 48.849L40.048 48.032ZM36.16 49.76L36.3879 50.7337L36.3977 50.7314L36.4074 50.7289L36.16 49.76ZM17.536 45.344L16.6838 44.8207L16.2376 45.5474L16.8847 46.1028L17.536 45.344ZM19.216 42.608L19.941 41.9193L19.0447 40.9758L18.3638 42.0847L19.216 42.608ZM21.376 44.432L20.8068 45.2542L20.814 45.2592L20.8213 45.264L21.376 44.432ZM24.208 45.968L23.8072 46.8842L23.8242 46.8916L23.8415 46.8984L24.208 45.968ZM27.568 46.976L27.3567 47.9534L27.3694 47.9562L27.3821 47.9586L27.568 46.976ZM37.648 45.872L38.186 46.7149L38.1905 46.712L37.648 45.872ZM39.28 38.768L38.4094 39.2601L38.4223 39.2828L38.4363 39.3049L39.28 38.768ZM37.36 36.896L36.8272 37.7422L36.8386 37.7494L36.8502 37.7563L37.36 36.896ZM29.68 34.352L29.4539 35.3261L29.4592 35.3273L29.68 34.352ZM24.976 33.056L24.6598 34.0047L24.976 33.056ZM21.568 31.376L20.9815 32.1859L21.568 31.376ZM19.456 28.976L18.5498 29.3989L18.5584 29.4173L18.5678 29.4354L19.456 28.976ZM19.648 21.296L18.749 20.858L18.7443 20.8679L19.648 21.296ZM22.192 18.224L22.7844 19.0296L22.792 19.0241L22.7994 19.0184L22.192 18.224ZM26.032 16.352L26.304 17.3143L26.3136 17.3116L26.3232 17.3087L26.032 16.352ZM36.976 16.736L36.6046 17.6645L36.6147 17.6685L36.6249 17.6723L36.976 16.736ZM41.824 19.616L42.6788 20.135L43.117 19.4133L42.4789 18.8603L41.824 19.616ZM40.9418 21.6424C39.8645 20.4214 38.4513 19.4611 36.7392 18.742L35.9648 20.586C37.4527 21.2109 38.5995 22.0106 39.4422 22.9656L40.9418 21.6424ZM36.7392 18.742C34.9966 18.0101 33.0374 17.656 30.88 17.656V19.656C32.8186 19.656 34.5074 19.9739 35.9648 20.586L36.7392 18.742ZM30.88 17.656C27.7833 17.656 25.3049 18.2418 23.6621 19.6172L24.9459 21.1508C26.0551 20.2222 27.9607 19.656 30.88 19.656V17.656ZM23.6727 19.6084C22.0381 20.939 21.24 22.7735 21.24 24.992H23.24C23.24 23.3065 23.8179 22.069 24.9353 21.1596L23.6727 19.6084ZM21.24 24.992C21.24 26.1236 21.4336 27.1436 21.8822 28L23.6538 27.072C23.3984 26.5844 23.24 25.9084 23.24 24.992H21.24ZM21.9105 28.0505C22.3914 28.8519 23.0923 29.5179 23.966 30.064L25.026 28.368C24.3637 27.9541 23.9126 27.5001 23.6255 27.0215L21.9105 28.0505ZM23.966 30.064C24.8323 30.6054 25.8977 31.0535 27.139 31.4225L27.709 29.5055C26.5823 29.1705 25.6957 28.7866 25.026 28.368L23.966 30.064ZM27.1459 31.4246C28.3898 31.7846 29.8372 32.1421 31.4852 32.4975L31.9068 30.5425C30.2908 30.1939 28.8902 29.8474 27.7021 29.5034L27.1459 31.4246ZM31.49 32.4985C33.2848 32.8764 34.8789 33.2991 36.2758 33.7647L36.9082 31.8673C35.4251 31.3729 33.7552 30.9316 31.902 30.5414L31.49 32.4985ZM36.282 33.7667C37.6776 34.2218 38.8284 34.7879 39.7524 35.452L40.9196 33.828C39.7956 33.0201 38.4504 32.3702 36.902 31.8653L36.282 33.7667ZM39.7695 35.464C40.6707 36.0836 41.3417 36.8293 41.8049 37.7012L43.5711 36.7628C42.9463 35.5867 42.0493 34.6044 40.9025 33.816L39.7695 35.464ZM41.8049 37.7012C42.2513 38.5414 42.504 39.6485 42.504 41.072H44.504C44.504 39.4235 44.2127 37.9706 43.5711 36.7628L41.8049 37.7012ZM42.504 41.072C42.504 42.5102 42.2257 43.7036 41.7076 44.6852L43.4764 45.6188C44.1743 44.2964 44.504 42.7698 44.504 41.072H42.504ZM41.7076 44.6852C41.1748 45.6947 40.4336 46.5358 39.4713 47.215L40.6247 48.849C41.8384 47.9922 42.7932 46.9133 43.4764 45.6188L41.7076 44.6852ZM39.4713 47.215C38.4979 47.9021 37.3177 48.4323 35.9126 48.7911L36.4074 50.7289C38.0103 50.3197 39.4221 49.6979 40.6247 48.849L39.4713 47.215ZM35.9321 48.7863C34.5136 49.1183 32.9432 49.288 31.216 49.288V51.288C33.0728 51.288 34.7984 51.1057 36.3879 50.7337L35.9321 48.7863ZM31.216 49.288C26.1637 49.288 21.8376 47.7184 18.1873 44.5852L16.8847 46.1028C20.9144 49.5616 25.7083 51.288 31.216 51.288V49.288ZM18.3882 45.8673L20.0682 43.1313L18.3638 42.0847L16.6838 44.8207L18.3882 45.8673ZM18.491 43.2967C19.1525 43.993 19.9264 44.6447 20.8068 45.2542L21.9452 43.6098C21.1616 43.0673 20.4955 42.5029 19.941 41.9193L18.491 43.2967ZM20.8213 45.264C21.7376 45.8749 22.7336 46.4145 23.8072 46.8842L24.6088 45.0518C23.6344 44.6255 22.7424 44.1411 21.9307 43.5999L20.8213 45.264ZM23.8415 46.8984C24.9511 47.3355 26.1233 47.6867 27.3567 47.9534L27.7793 45.9986C26.6447 45.7533 25.5769 45.4325 24.5745 45.0376L23.8415 46.8984ZM27.3821 47.9586C28.6325 48.1951 29.9431 48.312 31.312 48.312V46.312C30.0569 46.312 28.8715 46.2049 27.7539 45.9934L27.3821 47.9586ZM31.312 48.312C34.1298 48.312 36.4578 47.818 38.186 46.7149L37.11 45.0291C35.8302 45.846 33.9342 46.312 31.312 46.312V48.312ZM38.1905 46.712C40.0395 45.5179 40.952 43.6971 40.952 41.408H38.952C38.952 43.0869 38.3285 44.2421 37.1055 45.032L38.1905 46.712ZM40.952 41.408C40.952 40.212 40.6977 39.1332 40.1237 38.2311L38.4363 39.3049C38.7583 39.8108 38.952 40.492 38.952 41.408H40.952ZM40.1506 38.2759C39.6337 37.3614 38.8558 36.62 37.8698 36.0357L36.8502 37.7563C37.5922 38.196 38.0943 38.7026 38.4094 39.2601L40.1506 38.2759ZM37.8928 36.0498C36.9331 35.4455 35.7728 34.9486 34.4313 34.5462L33.8567 36.4618C35.0752 36.8274 36.0589 37.2585 36.8272 37.7422L37.8928 36.0498ZM34.4313 34.5462C33.124 34.154 31.613 33.7643 29.9008 33.3767L29.4592 35.3273C31.1391 35.7077 32.604 36.086 33.8567 36.4618L34.4313 34.5462ZM29.9061 33.3779C28.1361 32.967 26.5994 32.543 25.2922 32.1073L24.6598 34.0047C26.0406 34.465 27.6399 34.905 29.4539 35.3261L29.9061 33.3779ZM25.2922 32.1073C24.023 31.6842 22.9832 31.1661 22.1545 30.5661L20.9815 32.1859C22.0088 32.9299 23.241 33.5318 24.6598 34.0047L25.2922 32.1073ZM22.1545 30.5661C21.3406 29.9767 20.7457 29.2927 20.3442 28.5166L18.5678 29.4354C19.1263 30.5153 19.9394 31.4313 20.9815 32.1859L22.1545 30.5661ZM20.3622 28.5531C19.9915 27.7589 19.784 26.7438 19.784 25.472H17.784C17.784 26.9522 18.0245 28.2731 18.5498 29.3989L20.3622 28.5531ZM19.784 25.472C19.784 24.0277 20.0488 22.7859 20.5517 21.7241L18.7443 20.8679C18.0952 22.2381 17.784 23.7803 17.784 25.472H19.784ZM20.547 21.734C21.0861 20.6273 21.8306 19.731 22.7844 19.0296L21.5996 17.4183C20.3774 18.317 19.4259 19.4687 18.749 20.858L20.547 21.734ZM22.7994 19.0184C23.7762 18.2715 24.9392 17.7 26.304 17.3143L25.76 15.3897C24.1808 15.836 22.7838 16.5125 21.5846 17.4296L22.7994 19.0184ZM26.3232 17.3087C27.6867 16.8937 29.2188 16.68 30.928 16.68V14.68C29.0532 14.68 27.3213 14.9143 25.7408 15.3953L26.3232 17.3087ZM30.928 16.68C33.0975 16.68 34.9837 17.0161 36.6046 17.6645L37.3474 15.8075C35.4483 15.0479 33.3025 14.68 30.928 14.68V16.68ZM36.6249 17.6723C38.3062 18.3028 39.8192 19.2018 41.1691 20.3717L42.4789 18.8603C40.9488 17.5342 39.2298 16.5132 37.3271 15.7997L36.6249 17.6723ZM40.9692 19.097L39.3372 21.785L41.0468 22.823L42.6788 20.135L40.9692 19.097ZM59.4258 15.92V14.92H58.7601L58.5032 15.5341L59.4258 15.92ZM62.2578 15.92L63.1812 15.5363L62.9251 14.92H62.2578V15.92ZM76.4178 50V51H77.9161L77.3412 49.6163L76.4178 50ZM72.8658 50L71.9419 50.3828L72.1977 51H72.8658V50ZM68.4497 39.344L69.3736 38.9612L69.1178 38.344H68.4497V39.344ZM53.1377 39.344V38.344H52.4669L52.2125 38.9647L53.1377 39.344ZM48.7697 50V51H49.4406L49.695 50.3793L48.7697 50ZM45.1698 50L44.2472 49.6141L43.6675 51H45.1698V50ZM67.6818 36.704V37.704H69.169L68.6078 36.3267L67.6818 36.704ZM60.8178 19.856L61.7438 19.4787L60.8242 17.2213L59.8935 19.4742L60.8178 19.856ZM53.8577 36.704L52.9335 36.3222L52.3627 37.704H53.8577V36.704ZM59.4258 16.92H62.2578V14.92H59.4258V16.92ZM61.3343 16.3037L75.4943 50.3837L77.3412 49.6163L63.1812 15.5363L61.3343 16.3037ZM76.4178 49H72.8658V51H76.4178V49ZM73.7896 49.6172L69.3736 38.9612L67.5259 39.7268L71.9419 50.3828L73.7896 49.6172ZM68.4497 38.344H53.1377V40.344H68.4497V38.344ZM52.2125 38.9647L47.8445 49.6207L49.695 50.3793L54.063 39.7233L52.2125 38.9647ZM48.7697 49H45.1698V51H48.7697V49ZM46.0923 50.3859L60.3483 16.3059L58.5032 15.5341L44.2472 49.6141L46.0923 50.3859ZM68.6078 36.3267L61.7438 19.4787L59.8917 20.2333L66.7557 37.0813L68.6078 36.3267ZM59.8935 19.4742L52.9335 36.3222L54.782 37.0858L61.742 20.2378L59.8935 19.4742ZM53.8577 37.704H67.6818V35.704H53.8577V37.704ZM84.6633 22.16L85.4448 21.5361L83.6633 19.3044V22.16H84.6633ZM84.6633 50V51H85.6633V50H84.6633ZM81.3033 50H80.3033V51H81.3033V50ZM81.3033 15.92V14.92H80.3033V15.92H81.3033ZM83.8952 15.92L84.6779 15.2976L84.3777 14.92H83.8952V15.92ZM106.455 44.288L105.673 44.9104L107.455 47.1521V44.288H106.455ZM106.455 15.968V14.968H105.455V15.968H106.455ZM109.815 15.968H110.815V14.968H109.815V15.968ZM109.815 50V51H110.815V50H109.815ZM106.887 50L106.106 50.6239L106.406 51H106.887V50ZM83.6633 22.16V50H85.6633V22.16H83.6633ZM84.6633 49H81.3033V51H84.6633V49ZM82.3033 50V15.92H80.3033V50H82.3033ZM81.3033 16.92H83.8952V14.92H81.3033V16.92ZM83.1126 16.5424L105.673 44.9104L107.238 43.6656L84.6779 15.2976L83.1126 16.5424ZM107.455 44.288V15.968H105.455V44.288H107.455ZM106.455 16.968H109.815V14.968H106.455V16.968ZM108.815 15.968V50H110.815V15.968H108.815ZM109.815 49H106.887V51H109.815V49ZM107.669 49.3761L85.4448 21.5361L83.8817 22.7839L106.106 50.6239L107.669 49.3761ZM118.381 50H117.381V51H118.381V50ZM118.381 15.92V14.92H117.381V15.92H118.381ZM137.053 17.264L136.647 18.1778L136.653 18.1802L137.053 17.264ZM142.141 20.912L141.389 21.5705L141.397 21.5792L142.141 20.912ZM145.213 26.336L144.262 26.6434L144.265 26.6523L144.268 26.6611L145.213 26.336ZM145.117 39.968L146.055 40.3144L146.057 40.3097L145.117 39.968ZM141.805 45.344L141.083 44.6524L141.083 44.6528L141.805 45.344ZM136.669 48.8L137.043 49.7275L137.051 49.7244L136.669 48.8ZM142.045 27.296L141.097 27.6122L141.098 27.6176L142.045 27.296ZM139.501 22.832L138.748 23.4891L138.752 23.4946L138.757 23.4999L139.501 22.832ZM135.469 19.952L135.067 20.8673L135.074 20.8707L135.082 20.874L135.469 19.952ZM121.741 18.896V17.896H120.741V18.896H121.741ZM121.741 47.024H120.741V48.024H121.741V47.024ZM135.517 45.968L135.92 46.8834L135.928 46.8796L135.517 45.968ZM139.597 42.992L140.351 43.6492L140.359 43.6396L139.597 42.992ZM142.045 38.528L141.097 38.2118L141.093 38.2226L142.045 38.528ZM119.381 50V15.92H117.381V50H119.381ZM118.381 16.92H129.949V14.92H118.381V16.92ZM129.949 16.92C132.561 16.92 134.785 17.3502 136.647 18.1778L137.46 16.3502C135.29 15.3857 132.778 14.92 129.949 14.92V16.92ZM136.653 18.1802C138.579 19.0229 140.151 20.1554 141.389 21.5705L142.894 20.2535C141.444 18.5966 139.624 17.2971 137.454 16.3478L136.653 18.1802ZM141.397 21.5792C142.674 23.0049 143.63 24.6884 144.262 26.6434L146.165 26.0286C145.453 23.8236 144.361 21.8911 142.886 20.2448L141.397 21.5792ZM144.268 26.6611C144.933 28.5965 145.269 30.6779 145.269 32.912H147.269C147.269 30.4741 146.902 28.1715 146.159 26.0109L144.268 26.6611ZM145.269 32.912C145.269 35.405 144.9 37.6392 144.178 39.6263L146.057 40.3097C146.871 38.0728 147.269 35.603 147.269 32.912H145.269ZM144.179 39.6216C143.456 41.5815 142.422 43.2538 141.083 44.6524L142.528 46.0356C144.069 44.4262 145.243 42.5145 146.055 40.3144L144.179 39.6216ZM141.083 44.6528C139.778 46.0172 138.184 47.0929 136.288 47.8756L137.051 49.7244C139.186 48.8431 141.017 47.6148 142.528 46.0352L141.083 44.6528ZM136.295 47.8726C134.448 48.6173 132.338 49 129.949 49V51C132.552 51 134.922 50.5827 137.043 49.7274L136.295 47.8726ZM129.949 49H118.381V51H129.949V49ZM143.909 32.912C143.909 30.7701 143.608 28.7877 142.992 26.9744L141.098 27.6176C141.635 29.1963 141.909 30.9579 141.909 32.912H143.909ZM142.994 26.9798C142.379 25.1331 141.465 23.5226 140.246 22.1641L138.757 23.4999C139.778 24.6374 140.56 26.0029 141.097 27.6122L142.994 26.9798ZM140.255 22.1749C139.062 20.8062 137.59 19.7582 135.857 19.03L135.082 20.874C136.548 21.4898 137.765 22.3618 138.748 23.4891L140.255 22.1749ZM135.872 19.0367C134.123 18.2673 132.142 17.896 129.949 17.896V19.896C131.917 19.896 133.615 20.2287 135.067 20.8673L135.872 19.0367ZM129.949 17.896H121.741V19.896H129.949V17.896ZM120.741 18.896V47.024H122.741V18.896H120.741ZM121.741 48.024H129.949V46.024H121.741V48.024ZM129.949 48.024C132.172 48.024 134.17 47.6535 135.92 46.8833L135.115 45.0527C133.665 45.6905 131.951 46.024 129.949 46.024V48.024ZM135.928 46.8796C137.681 46.0893 139.161 45.0142 140.351 43.6491L138.844 42.3349C137.858 43.4658 136.618 44.3747 135.106 45.0564L135.928 46.8796ZM140.359 43.6396C141.538 42.2533 142.416 40.6473 142.998 38.8334L141.093 38.2226C140.587 39.8007 139.833 41.1707 138.835 42.3444L140.359 43.6396ZM142.994 38.8442C143.607 37.004 143.909 35.0241 143.909 32.912H141.909C141.909 34.8319 141.635 36.596 141.097 38.2118L142.994 38.8442ZM171.846 46.016L172.34 46.8855L172.346 46.8819L171.846 46.016ZM175.254 42.8L174.413 42.2592L174.409 42.2645L175.254 42.8ZM177.03 38.24L176.051 38.0368L176.049 38.0457L176.047 38.0546L177.03 38.24ZM177.558 15.92V14.92H176.558V15.92H177.558ZM180.918 15.92H181.918V14.92H180.918V15.92ZM180.15 39.68L181.12 39.9225L181.121 39.919L180.15 39.68ZM177.654 45.104L176.848 44.5119L176.84 44.5228L177.654 45.104ZM173.238 48.848L173.691 49.7393L173.238 48.848ZM159.75 48.8L159.272 49.6785L159.281 49.6834L159.29 49.6882L159.75 48.8ZM155.334 44.912L156.153 44.3385L155.334 44.912ZM152.934 39.44L153.907 39.2118L152.934 39.44ZM152.214 15.92V14.92H151.214V15.92H152.214ZM155.526 15.92H156.526V14.92H155.526V15.92ZM156.054 38.336L157.033 38.1328L156.054 38.336ZM157.83 42.848L156.985 43.3835L156.99 43.3908L156.995 43.398L157.83 42.848ZM161.238 46.016L161.732 45.1465L161.238 46.016ZM166.518 48.216C168.781 48.216 170.74 47.7943 172.34 46.8855L171.352 45.1465C170.136 45.8377 168.543 46.216 166.518 46.216V48.216ZM172.346 46.8819C173.916 45.975 175.174 44.7933 176.098 43.3355L174.409 42.2645C173.67 43.4307 172.656 44.393 171.346 45.1501L172.346 46.8819ZM176.095 43.3408C177.034 41.8801 177.671 40.2376 178.013 38.4254L176.047 38.0546C175.749 39.6344 175.202 41.0319 174.413 42.2592L176.095 43.3408ZM178.009 38.4432C178.375 36.6805 178.558 34.9004 178.558 33.104H176.558C176.558 34.7636 176.389 36.4075 176.051 38.0368L178.009 38.4432ZM178.558 33.104V15.92H176.558V33.104H178.558ZM177.558 16.92H180.918V14.92H177.558V16.92ZM179.918 15.92V33.104H181.918V15.92H179.918ZM179.918 33.104C179.918 35.3335 179.67 37.4449 179.179 39.441L181.121 39.919C181.654 37.7551 181.918 35.4825 181.918 33.104H179.918ZM179.18 39.4375C178.697 41.3702 177.917 43.0573 176.848 44.5119L178.46 45.6961C179.695 44.0147 180.579 42.0858 181.12 39.9225L179.18 39.4375ZM176.84 44.5228C175.819 45.9519 174.474 47.097 172.784 47.9567L173.691 49.7393C175.649 48.743 177.248 47.3921 178.468 45.6852L176.84 44.5228ZM172.784 47.9567C171.135 48.796 169.075 49.24 166.566 49.24V51.24C169.304 51.24 171.693 50.756 173.691 49.7393L172.784 47.9567ZM166.566 49.24C163.993 49.24 161.888 48.7803 160.209 47.9118L159.29 49.6882C161.323 50.7397 163.762 51.24 166.566 51.24V49.24ZM160.228 47.9215C158.531 46.9986 157.179 45.8039 156.153 44.3385L154.515 45.4855C155.729 47.2201 157.321 48.6174 159.272 49.6785L160.228 47.9215ZM156.153 44.3385C155.112 42.8506 154.361 41.1456 153.907 39.2118L151.96 39.6682C152.467 41.8304 153.316 43.7734 154.515 45.4855L156.153 44.3385ZM153.907 39.2118C153.446 37.2411 153.214 35.2058 153.214 33.104H151.214C151.214 35.3542 151.462 37.5429 151.96 39.6682L153.907 39.2118ZM153.214 33.104V15.92H151.214V33.104H153.214ZM152.214 16.92H155.526V14.92H152.214V16.92ZM154.526 15.92V33.104H156.526V15.92H154.526ZM154.526 33.104C154.526 34.9619 154.708 36.7741 155.075 38.5392L157.033 38.1328C156.695 36.5059 156.526 34.8301 156.526 33.104H154.526ZM155.075 38.5392C155.448 40.3397 156.082 41.9588 156.985 43.3835L158.674 42.3125C157.914 41.1132 157.363 39.7243 157.033 38.1328L155.075 38.5392ZM156.995 43.398C157.948 44.8461 159.203 46.0099 160.744 46.8855L161.732 45.1465C160.457 44.4221 159.439 43.4739 158.665 42.298L156.995 43.398ZM160.744 46.8855C162.341 47.7932 164.284 48.216 166.518 48.216V46.216C164.528 46.216 162.95 45.8388 161.732 45.1465L160.744 46.8855Z" fill="white"/>
</svg>
